<svg version="1.1" viewBox="0.0 0.0 960.0 960.0" fill="none" stroke="none" stroke-linecap="square" stroke-miterlimit="10" xmlns:xlink="http://www.w3.org/1999/xlink" xmlns="http://www.w3.org/2000/svg"><clipPath id="p.0"><path d="m0 0l960.0 0l0 960.0l-960.0 0l0 -960.0z" clip-rule="nonzero"/></clipPath><g clip-path="url(#p.0)"><path fill="#000000" fill-opacity="0.0" d="m0 0l960.0 0l0 960.0l-960.0 0z" fill-rule="evenodd"/><path fill="#000000" fill-opacity="0.0" d="m7.8372703 479.99475l0 0c0 -260.76538 211.3921 -472.15747 472.15747 -472.15747l0 0c125.22394 0 245.31903 49.74502 333.86578 138.29173c88.54669 88.54671 138.29169 208.64182 138.29169 333.86575l0 0c0 260.76538 -211.39209 472.15747 -472.15747 472.15747l0 0c-260.76538 0 -472.15747 -211.39209 -472.15747 -472.15747z" fill-rule="evenodd"/><path stroke="#ffffff" stroke-width="12.0" stroke-linejoin="round" stroke-linecap="butt" d="m7.8372703 479.99475l0 0c0 -260.76538 211.3921 -472.15747 472.15747 -472.15747l0 0c125.22394 0 245.31903 49.74502 333.86578 138.29173c88.54669 88.54671 138.29169 208.64182 138.29169 333.86575l0 0c0 260.76538 -211.39209 472.15747 -472.15747 472.15747l0 0c-260.76538 0 -472.15747 -211.39209 -472.15747 -472.15747z" fill-rule="evenodd"/><path fill="#000000" fill-opacity="0.0" d="m813.86053 813.86053l-667.71655 -667.71655" fill-rule="evenodd"/><path stroke="#ffffff" stroke-width="12.0" stroke-linejoin="round" stroke-linecap="butt" d="m813.86053 813.86053l-667.71655 -667.71655" fill-rule="evenodd"/><path fill="#000000" fill-opacity="0.0" d="m146.129 813.86053l667.71655 -667.71655" fill-rule="evenodd"/><path stroke="#ffffff" stroke-width="12.0" stroke-linejoin="round" stroke-linecap="butt" d="m146.129 813.86053l667.71655 -667.71655" fill-rule="evenodd"/></g></svg>