<svg version="1.1" viewBox="0.0 0.0 960.0 960.0" fill="none" stroke="none" stroke-linecap="square" stroke-miterlimit="10" xmlns:xlink="http://www.w3.org/1999/xlink" xmlns="http://www.w3.org/2000/svg"><clipPath id="p.0"><path d="m0 0l960.0 0l0 960.0l-960.0 0l0 -960.0z" clip-rule="nonzero"/></clipPath><g clip-path="url(#p.0)"><path fill="#000000" fill-opacity="0.0" d="m0 0l960.0 0l0 960.0l-960.0 0z" fill-rule="evenodd"/><path fill="#000000" fill-opacity="0.0" d="m220.94489 562.29395l0 0c0 -143.07217 115.98291 -259.0551 259.0551 -259.0551l0 0c68.70569 0 134.59735 27.293243 183.17963 75.87549c48.582275 48.582275 75.87549 114.47397 75.87549 183.17963l0 0c0 143.0722 -115.98291 259.0551 -259.0551 259.0551l0 0c-143.0722 0 -259.0551 -115.98291 -259.0551 -259.0551z" fill-rule="evenodd"/><path stroke="#336dff" stroke-width="16.0" stroke-linejoin="round" stroke-linecap="butt" d="m220.94489 562.29395l0 0c0 -143.07217 115.98291 -259.0551 259.0551 -259.0551l0 0c68.70569 0 134.59735 27.293243 183.17963 75.87549c48.582275 48.582275 75.87549 114.47397 75.87549 183.17963l0 0c0 143.0722 -115.98291 259.0551 -259.0551 259.0551l0 0c-143.0722 0 -259.0551 -115.98291 -259.0551 -259.0551z" fill-rule="evenodd"/><path fill="#96ff33" d="m507.43558 256.16022l114.00546 0l0 -114.00548l37.54834 0l0 114.00548l114.00549 0l0 37.54834l-114.00549 0l0 114.00546l-37.54834 0l0 -114.00546l-114.00546 0z" fill-rule="evenodd"/></g></svg>