<svg version="1.1" viewBox="0.0 0.0 960.0 960.0" fill="none" stroke="none" stroke-linecap="square" stroke-miterlimit="10" xmlns:xlink="http://www.w3.org/1999/xlink" xmlns="http://www.w3.org/2000/svg"><clipPath id="p.0"><path d="m0 0l960.0 0l0 960.0l-960.0 0l0 -960.0z" clip-rule="nonzero"/></clipPath><g clip-path="url(#p.0)"><path fill="#000000" fill-opacity="0.0" d="m0 0l960.0 0l0 960.0l-960.0 0z" fill-rule="evenodd"/><path fill="#000000" fill-opacity="0.0" d="m260.50394 480.0l0 0c0 -121.224335 98.27173 -219.49606 219.49606 -219.49606l0 0c58.21399 0 114.04364 23.125397 155.20715 64.28891c41.163513 41.163483 64.28888 96.993164 64.28888 155.20715l0 0c0 121.224304 -98.27173 219.49603 -219.49603 219.49603l0 0c-121.224335 0 -219.49606 -98.27173 -219.49606 -219.49603z" fill-rule="evenodd"/><path stroke="#336dff" stroke-width="16.0" stroke-linejoin="round" stroke-linecap="butt" d="m260.50394 480.0l0 0c0 -121.224335 98.27173 -219.49606 219.49606 -219.49606l0 0c58.21399 0 114.04364 23.125397 155.20715 64.28891c41.163513 41.163483 64.28888 96.993164 64.28888 155.20715l0 0c0 121.224304 -98.27173 219.49603 -219.49603 219.49603l0 0c-121.224335 0 -219.49606 -98.27173 -219.49606 -219.49603z" fill-rule="evenodd"/><path fill="#000000" fill-opacity="0.0" d="m432.1597 -52.62733l0 0c0 -26.422695 21.4198 -47.842518 47.8425 -47.842518l0 0c12.688629 0 24.857574 5.040535 33.829773 14.012749c8.972229 8.972214 14.012756 21.141144 14.012756 33.82977l0 0c0 26.422693 -21.41983 47.842518 -47.84253 47.842518l0 0c-26.422699 0 -47.8425 -21.419825 -47.8425 -47.842518z" fill-rule="evenodd"/><path stroke="#336dff" stroke-width="16.0" stroke-linejoin="round" stroke-linecap="butt" d="m432.1597 -52.62733l0 0c0 -26.422695 21.4198 -47.842518 47.8425 -47.842518l0 0c12.688629 0 24.857574 5.040535 33.829773 14.012749c8.972229 8.972214 14.012756 21.141144 14.012756 33.82977l0 0c0 26.422693 -21.41983 47.842518 -47.84253 47.842518l0 0c-26.422699 0 -47.8425 -21.419825 -47.8425 -47.842518z" fill-rule="evenodd"/><path fill="#000000" fill-opacity="0.0" d="m-36.469852 480.0022l0 0c0 -26.422699 21.419827 -47.8425 47.84252 -47.8425l0 0c12.688625 0 24.857557 5.0405273 33.829773 14.012726c8.972214 8.972229 14.012749 21.141144 14.012749 33.829773l0 0c0 26.422699 -21.419827 47.84253 -47.84252 47.84253l0 0c-26.422693 0 -47.84252 -21.41983 -47.84252 -47.84253z" fill-rule="evenodd"/><path stroke="#336dff" stroke-width="16.0" stroke-linejoin="round" stroke-linecap="butt" d="m-36.469852 480.0022l0 0c0 -26.422699 21.419827 -47.8425 47.84252 -47.8425l0 0c12.688625 0 24.857557 5.0405273 33.829773 14.012726c8.972214 8.972229 14.012749 21.141144 14.012749 33.829773l0 0c0 26.422699 -21.419827 47.84253 -47.84252 47.84253l0 0c-26.422693 0 -47.84252 -21.41983 -47.84252 -47.84253z" fill-rule="evenodd"/><path fill="#000000" fill-opacity="0.0" d="m756.78925 480.0022l0 0c0 -26.422699 21.4198 -47.8425 47.84247 -47.8425l0 0c12.68866 0 24.857605 5.0405273 33.829773 14.012726c8.972229 8.972229 14.012756 21.141144 14.012756 33.829773l0 0c0 26.422699 -21.4198 47.84253 -47.84253 47.84253l0 0c-26.422668 0 -47.84247 -21.41983 -47.84247 -47.84253z" fill-rule="evenodd"/><path stroke="#336dff" stroke-width="16.0" stroke-linejoin="round" stroke-linecap="butt" d="m756.78925 480.0022l0 0c0 -26.422699 21.4198 -47.8425 47.84247 -47.8425l0 0c12.68866 0 24.857605 5.0405273 33.829773 14.012726c8.972229 8.972229 14.012756 21.141144 14.012756 33.829773l0 0c0 26.422699 -21.4198 47.84253 -47.84253 47.84253l0 0c-26.422668 0 -47.84247 -21.41983 -47.84247 -47.84253z" fill-rule="evenodd"/><path fill="#000000" fill-opacity="0.0" d="m432.1597 868.6317l0 0c0 -26.422668 21.4198 -47.84247 47.8425 -47.84247l0 0c12.688629 0 24.857574 5.0405273 33.829773 14.012756c8.972229 8.972168 14.012756 21.141113 14.012756 33.829712l0 0c0 26.42273 -21.41983 47.84253 -47.84253 47.84253l0 0c-26.422699 0 -47.8425 -21.4198 -47.8425 -47.84253z" fill-rule="evenodd"/><path stroke="#336dff" stroke-width="16.0" stroke-linejoin="round" stroke-linecap="butt" d="m432.1597 868.6317l0 0c0 -26.422668 21.4198 -47.84247 47.8425 -47.84247l0 0c12.688629 0 24.857574 5.0405273 33.829773 14.012756c8.972229 8.972168 14.012756 21.141113 14.012756 33.829712l0 0c0 26.42273 -21.41983 47.84253 -47.84253 47.84253l0 0c-26.422699 0 -47.8425 -21.4198 -47.8425 -47.84253z" fill-rule="evenodd"/><path fill="#000000" fill-opacity="0.0" d="m689.4003 745.24286l0 0c0 -26.42273 21.4198 -47.84253 47.84253 -47.84253l0 0c12.688599 0 24.857544 5.0405273 33.829773 14.012756c8.972168 8.972168 14.012695 21.141113 14.012695 33.829773l0 0c0 26.422668 -21.4198 47.84247 -47.84247 47.84247l0 0c-26.42273 0 -47.84253 -21.4198 -47.84253 -47.84247z" fill-rule="evenodd"/><path stroke="#336dff" stroke-width="16.0" stroke-linejoin="round" stroke-linecap="butt" d="m689.4003 745.24286l0 0c0 -26.42273 21.4198 -47.84253 47.84253 -47.84253l0 0c12.688599 0 24.857544 5.0405273 33.829773 14.012756c8.972168 8.972168 14.012695 21.141113 14.012695 33.829773l0 0c0 26.422668 -21.4198 47.84247 -47.84247 47.84247l0 0c-26.42273 0 -47.84253 -21.4198 -47.84253 -47.84247z" fill-rule="evenodd"/><path fill="#000000" fill-opacity="0.0" d="m641.4003 262.76157l0 0c0 -26.422684 21.4198 -47.842514 47.84253 -47.842514l0 0c12.688599 0 24.857544 5.0405426 33.829773 14.012756c8.972168 8.972214 14.012695 21.141144 14.012695 33.829758l0 0c0 26.422699 -21.4198 47.84253 -47.84247 47.84253l0 0c-26.42273 0 -47.84253 -21.41983 -47.84253 -47.84253z" fill-rule="evenodd"/><path stroke="#336dff" stroke-width="16.0" stroke-linejoin="round" stroke-linecap="butt" d="m641.4003 262.76157l0 0c0 -26.422684 21.4198 -47.842514 47.84253 -47.842514l0 0c12.688599 0 24.857544 5.0405426 33.829773 14.012756c8.972168 8.972214 14.012695 21.141144 14.012695 33.829758l0 0c0 26.422699 -21.4198 47.84253 -47.84247 47.84253l0 0c-26.42273 0 -47.84253 -21.41983 -47.84253 -47.84253z" fill-rule="evenodd"/><path fill="#000000" fill-opacity="0.0" d="m30.919056 126.76157l0 0c0 -26.422691 21.419827 -47.84252 47.842518 -47.84252l0 0c12.688629 0 24.85756 5.0405426 33.829773 14.012756c8.972214 8.972206 14.012749 21.141144 14.012749 33.829765l0 0c0 26.422691 -21.419823 47.84252 -47.84252 47.84252l0 0c-26.422691 0 -47.842518 -21.41983 -47.842518 -47.84252z" fill-rule="evenodd"/><path stroke="#336dff" stroke-width="16.0" stroke-linejoin="round" stroke-linecap="butt" d="m30.919056 126.76157l0 0c0 -26.422691 21.419827 -47.84252 47.842518 -47.84252l0 0c12.688629 0 24.85756 5.0405426 33.829773 14.012756c8.972214 8.972206 14.012749 21.141144 14.012749 33.829765l0 0c0 26.422691 -21.419823 47.84252 -47.84252 47.84252l0 0c-26.422691 0 -47.842518 -21.41983 -47.842518 -47.84252z" fill-rule="evenodd"/><path fill="#000000" fill-opacity="0.0" d="m118.91905 801.24286l0 0c0 -26.42273 21.41983 -47.84253 47.84253 -47.84253l0 0c12.688614 0 24.857544 5.0405273 33.829758 14.012756c8.972214 8.972168 14.012756 21.141113 14.012756 33.829773l0 0c0 26.422668 -21.41983 47.84247 -47.842514 47.84247l0 0c-26.422699 0 -47.84253 -21.4198 -47.84253 -47.84247z" fill-rule="evenodd"/><path stroke="#336dff" stroke-width="16.0" stroke-linejoin="round" stroke-linecap="butt" d="m118.91905 801.24286l0 0c0 -26.42273 21.41983 -47.84253 47.84253 -47.84253l0 0c12.688614 0 24.857544 5.0405273 33.829758 14.012756c8.972214 8.972168 14.012756 21.141113 14.012756 33.829773l0 0c0 26.422668 -21.41983 47.84247 -47.842514 47.84247l0 0c-26.422699 0 -47.84253 -21.4198 -47.84253 -47.84247z" fill-rule="evenodd"/><path fill="#000000" fill-opacity="0.0" d="m541.0716 204.41997l0 0c10.167297 -24.387512 38.179443 -35.9153 62.566956 -25.748032l0 0c11.711304 4.882477 21.003357 14.217285 25.832031 25.950867c4.8287354 11.733582 4.798462 24.90477 -0.083984375 36.61606l0 0c-10.167297 24.387512 -38.179443 35.915283 -62.566956 25.748016l0 0c-24.387512 -10.167236 -35.915283 -38.179413 -25.748047 -62.56691z" fill-rule="evenodd"/><path stroke="#336dff" stroke-width="16.0" stroke-linejoin="round" stroke-linecap="butt" d="m541.0716 204.41997l0 0c10.167297 -24.387512 38.179443 -35.9153 62.566956 -25.748032l0 0c11.711304 4.882477 21.003357 14.217285 25.832031 25.950867c4.8287354 11.733582 4.798462 24.90477 -0.083984375 36.61606l0 0c-10.167297 24.387512 -38.179443 35.915283 -62.566956 25.748016l0 0c-24.387512 -10.167236 -35.915283 -38.179413 -25.748047 -62.56691z" fill-rule="evenodd"/><path fill="#000000" fill-opacity="0.0" d="m-37.325783 276.36453l0 0c10.167259 -24.387512 38.17943 -35.9153 62.566933 -25.748047l0 0c11.71129 4.882492 21.003359 14.217316 25.832052 25.950867c4.8286896 11.733582 4.7984695 24.904785 -0.08402252 36.61606l0 0c-10.167255 24.387512 -38.179424 35.915314 -62.56693 25.748047l0 0c-24.3875 -10.167267 -35.915287 -38.179443 -25.748032 -62.566925z" fill-rule="evenodd"/><path stroke="#336dff" stroke-width="16.0" stroke-linejoin="round" stroke-linecap="butt" d="m-37.325783 276.36453l0 0c10.167259 -24.387512 38.17943 -35.9153 62.566933 -25.748047l0 0c11.71129 4.882492 21.003359 14.217316 25.832052 25.950867c4.8286896 11.733582 4.7984695 24.904785 -0.08402252 36.61606l0 0c-10.167255 24.387512 -38.179424 35.915314 -62.56693 25.748047l0 0c-24.3875 -10.167267 -35.915287 -38.179443 -25.748032 -62.566925z" fill-rule="evenodd"/><path fill="#000000" fill-opacity="0.0" d="m757.0162 598.8174l0 0c10.167236 -24.387512 38.179443 -35.915283 62.566956 -25.748047l0 0c11.711304 4.8825073 21.003357 14.217285 25.832031 25.950867c4.8286743 11.733582 4.798462 24.904785 -0.08404541 36.61609l0 0c-10.167236 24.387451 -38.179382 35.915283 -62.566895 25.747986l0 0c-24.387512 -10.167236 -35.915283 -38.179382 -25.748047 -62.566895z" fill-rule="evenodd"/><path stroke="#336dff" stroke-width="16.0" stroke-linejoin="round" stroke-linecap="butt" d="m757.0162 598.8174l0 0c10.167236 -24.387512 38.179443 -35.915283 62.566956 -25.748047l0 0c11.711304 4.8825073 21.003357 14.217285 25.832031 25.950867c4.8286743 11.733582 4.798462 24.904785 -0.08404541 36.61609l0 0c-10.167236 24.387451 -38.179382 35.915283 -62.566895 25.747986l0 0c-24.387512 -10.167236 -35.915283 -38.179382 -25.748047 -62.566895z" fill-rule="evenodd"/><path fill="#000000" fill-opacity="0.0" d="m274.61877 830.7619l0 0c10.167267 -24.387451 38.179443 -35.915283 62.566925 -25.747986l0 0c11.711304 4.8824463 21.003357 14.217285 25.832062 25.950867c4.828705 11.733582 4.798462 24.904724 -0.08401489 36.616028l0 0c-10.167267 24.387512 -38.179443 35.915283 -62.566925 25.748047l0 0c-24.387512 -10.167236 -35.915314 -38.179443 -25.748047 -62.566956z" fill-rule="evenodd"/><path stroke="#336dff" stroke-width="16.0" stroke-linejoin="round" stroke-linecap="butt" d="m274.61877 830.7619l0 0c10.167267 -24.387451 38.179443 -35.915283 62.566925 -25.747986l0 0c11.711304 4.8824463 21.003357 14.217285 25.832062 25.950867c4.828705 11.733582 4.798462 24.904724 -0.08401489 36.616028l0 0c-10.167267 24.387512 -38.179443 35.915283 -62.566925 25.748047l0 0c-24.387512 -10.167236 -35.915314 -38.179443 -25.748047 -62.566956z" fill-rule="evenodd"/><path fill="#000000" fill-opacity="0.0" d="m575.52655 799.85486l0 0c10.167297 -24.387512 38.179443 -35.915283 62.566956 -25.748047l0 0c11.711304 4.8825073 21.003357 14.217346 25.832031 25.950867c4.8286743 11.733582 4.798462 24.904785 -0.08404541 36.61609l0 0c-10.167236 24.387512 -38.179382 35.915283 -62.566895 25.748047l0 0c-24.387512 -10.167297 -35.915283 -38.179443 -25.748047 -62.566956z" fill-rule="evenodd"/><path stroke="#336dff" stroke-width="16.0" stroke-linejoin="round" stroke-linecap="butt" d="m575.52655 799.85486l0 0c10.167297 -24.387512 38.179443 -35.915283 62.566956 -25.748047l0 0c11.711304 4.8825073 21.003357 14.217346 25.832031 25.950867c4.8286743 11.733582 4.798462 24.904785 -0.08404541 36.61609l0 0c-10.167236 24.387512 -38.179382 35.915283 -62.566895 25.748047l0 0c-24.387512 -10.167297 -35.915283 -38.179443 -25.748047 -62.566956z" fill-rule="evenodd"/><path fill="#000000" fill-opacity="0.0" d="m726.10913 337.90958l0 0c10.167236 -24.387512 38.179443 -35.915283 62.566895 -25.748016l0 0c11.711304 4.882477 21.003357 14.217285 25.832092 25.950867c4.8286743 11.733582 4.798462 24.904755 -0.08404541 36.61606l0 0c-10.167236 24.387512 -38.179443 35.915283 -62.566895 25.748016l0 0c-24.387512 -10.167236 -35.915283 -38.179413 -25.748047 -62.566925z" fill-rule="evenodd"/><path stroke="#336dff" stroke-width="16.0" stroke-linejoin="round" stroke-linecap="butt" d="m726.10913 337.90958l0 0c10.167236 -24.387512 38.179443 -35.915283 62.566895 -25.748016l0 0c11.711304 4.882477 21.003357 14.217285 25.832092 25.950867c4.8286743 11.733582 4.798462 24.904755 -0.08404541 36.61606l0 0c-10.167236 24.387512 -38.179443 35.915283 -62.566895 25.748016l0 0c-24.387512 -10.167236 -35.915283 -38.179413 -25.748047 -62.566925z" fill-rule="evenodd"/><path fill="#000000" fill-opacity="0.0" d="m216.16383 -12.672981l0 0c10.167267 -24.387505 38.17943 -35.91529 62.56694 -25.748032l0 0c11.711273 4.8824883 21.003357 14.2172985 25.832031 25.950874c4.828705 11.733575 4.7984924 24.904764 -0.08401489 36.616055l0 0c-10.167236 24.387505 -38.179413 35.91529 -62.566925 25.748032l0 0c-24.387497 -10.167259 -35.915283 -38.17943 -25.748032 -62.56693z" fill-rule="evenodd"/><path stroke="#336dff" stroke-width="16.0" stroke-linejoin="round" stroke-linecap="butt" d="m216.16383 -12.672981l0 0c10.167267 -24.387505 38.17943 -35.91529 62.56694 -25.748032l0 0c11.711273 4.8824883 21.003357 14.2172985 25.832031 25.950874c4.828705 11.733575 4.7984924 24.904764 -0.08401489 36.616055l0 0c-10.167236 24.387505 -38.179413 35.91529 -62.566925 25.748032l0 0c-24.387497 -10.167259 -35.915283 -38.17943 -25.748032 -62.56693z" fill-rule="evenodd"/><path fill="#000000" fill-opacity="0.0" d="m9.581276 633.2723l0 0c10.167257 -24.387451 38.17943 -35.915283 62.566933 -25.747986l0 0c11.711288 4.8824463 21.003357 14.217285 25.832047 25.950867c4.828697 11.733582 4.7984695 24.904724 -0.08401489 36.616028l0 0c-10.167259 24.387512 -38.17943 35.915283 -62.566933 25.748047l0 0c-24.387503 -10.167236 -35.91529 -38.179443 -25.748032 -62.566956z" fill-rule="evenodd"/><path stroke="#336dff" stroke-width="16.0" stroke-linejoin="round" stroke-linecap="butt" d="m9.581276 633.2723l0 0c10.167257 -24.387451 38.17943 -35.915283 62.566933 -25.747986l0 0c11.711288 4.8824463 21.003357 14.217285 25.832047 25.950867c4.828697 11.733582 4.7984695 24.904724 -0.08401489 36.616028l0 0c-10.167259 24.387512 -38.17943 35.915283 -62.566933 25.748047l0 0c-24.387503 -10.167236 -35.91529 -38.179443 -25.748032 -62.566956z" fill-rule="evenodd"/></g></svg>