<svg version="1.1" viewBox="0.0 0.0 960.0 960.0" fill="none" stroke="none" stroke-linecap="square" stroke-miterlimit="10" xmlns:xlink="http://www.w3.org/1999/xlink" xmlns="http://www.w3.org/2000/svg"><clipPath id="p.0"><path d="m0 0l960.0 0l0 960.0l-960.0 0l0 -960.0z" clip-rule="nonzero"/></clipPath><g clip-path="url(#p.0)"><path fill="#000000" fill-opacity="0.0" d="m0 0l960.0 0l0 960.0l-960.0 0z" fill-rule="evenodd"/><path fill="#000000" fill-opacity="0.0" d="m260.50394 480.0l0 0c0 -121.224335 98.27173 -219.49606 219.49606 -219.49606l0 0c58.21399 0 114.04364 23.125397 155.20715 64.28891c41.163513 41.163483 64.28888 96.993164 64.28888 155.20715l0 0c0 121.224304 -98.27173 219.49603 -219.49603 219.49603l0 0c-121.224335 0 -219.49606 -98.27173 -219.49606 -219.49603z" fill-rule="evenodd"/><path stroke="#336dff" stroke-width="16.0" stroke-linejoin="round" stroke-linecap="butt" d="m260.50394 480.0l0 0c0 -121.224335 98.27173 -219.49606 219.49606 -219.49606l0 0c58.21399 0 114.04364 23.125397 155.20715 64.28891c41.163513 41.163483 64.28888 96.993164 64.28888 155.20715l0 0c0 121.224304 -98.27173 219.49603 -219.49603 219.49603l0 0c-121.224335 0 -219.49606 -98.27173 -219.49606 -219.49603z" fill-rule="evenodd"/><path fill="#000000" fill-opacity="0.0" d="m403.5748 76.42519l0 0c0 -42.20847 34.216736 -76.42519 76.4252 -76.42519l0 0c20.269226 0 39.708252 8.051917 54.04077 22.384422c14.33252 14.332504 22.3844 33.771553 22.3844 54.04077l0 0c0 42.208473 -34.216675 76.42519 -76.42517 76.42519l0 0c-42.208466 0 -76.4252 -34.21672 -76.4252 -76.42519z" fill-rule="evenodd"/><path stroke="#336dff" stroke-width="16.0" stroke-linejoin="round" stroke-linecap="butt" d="m403.5748 76.42519l0 0c0 -42.20847 34.216736 -76.42519 76.4252 -76.42519l0 0c20.269226 0 39.708252 8.051917 54.04077 22.384422c14.33252 14.332504 22.3844 33.771553 22.3844 54.04077l0 0c0 42.208473 -34.216675 76.42519 -76.42517 76.42519l0 0c-42.208466 0 -76.4252 -34.21672 -76.4252 -76.42519z" fill-rule="evenodd"/><path fill="#000000" fill-opacity="0.0" d="m0 480.0l0 0c0 -42.208466 34.216724 -76.4252 76.42519 -76.4252l0 0c20.269226 0 39.708275 8.05191 54.04078 22.38443c14.332504 14.332489 22.384415 33.771545 22.384415 54.04077l0 0c0 42.208496 -34.21672 76.42517 -76.42519 76.42517l0 0c-42.20847 0 -76.42519 -34.216675 -76.42519 -76.42517z" fill-rule="evenodd"/><path stroke="#336dff" stroke-width="16.0" stroke-linejoin="round" stroke-linecap="butt" d="m0 480.0l0 0c0 -42.208466 34.216724 -76.4252 76.42519 -76.4252l0 0c20.269226 0 39.708275 8.05191 54.04078 22.38443c14.332504 14.332489 22.384415 33.771545 22.384415 54.04077l0 0c0 42.208496 -34.21672 76.42517 -76.42519 76.42517l0 0c-42.20847 0 -76.42519 -34.216675 -76.42519 -76.42517z" fill-rule="evenodd"/><path fill="#000000" fill-opacity="0.0" d="m807.1496 480.0l0 0c0 -42.208466 34.216736 -76.4252 76.42523 -76.4252l0 0c20.269226 0 39.708252 8.05191 54.04077 22.38443c14.3324585 14.332489 22.3844 33.771545 22.3844 54.04077l0 0c0 42.208496 -34.216736 76.42517 -76.42517 76.42517l0 0c-42.208496 0 -76.42523 -34.216675 -76.42523 -76.42517z" fill-rule="evenodd"/><path stroke="#336dff" stroke-width="16.0" stroke-linejoin="round" stroke-linecap="butt" d="m807.1496 480.0l0 0c0 -42.208466 34.216736 -76.4252 76.42523 -76.4252l0 0c20.269226 0 39.708252 8.05191 54.04077 22.38443c14.3324585 14.332489 22.3844 33.771545 22.3844 54.04077l0 0c0 42.208496 -34.216736 76.42517 -76.42517 76.42517l0 0c-42.208496 0 -76.42523 -34.216675 -76.42523 -76.42517z" fill-rule="evenodd"/><path fill="#000000" fill-opacity="0.0" d="m403.5748 883.5748l0 0c0 -42.208496 34.216736 -76.42523 76.4252 -76.42523l0 0c20.269226 0 39.708252 8.051941 54.04077 22.38446c14.33252 14.3324585 22.3844 33.771545 22.3844 54.04077l0 0c0 42.208435 -34.216675 76.42517 -76.42517 76.42517l0 0c-42.208466 0 -76.4252 -34.216736 -76.4252 -76.42517z" fill-rule="evenodd"/><path stroke="#336dff" stroke-width="16.0" stroke-linejoin="round" stroke-linecap="butt" d="m403.5748 883.5748l0 0c0 -42.208496 34.216736 -76.42523 76.4252 -76.42523l0 0c20.269226 0 39.708252 8.051941 54.04077 22.38446c14.33252 14.3324585 22.3844 33.771545 22.3844 54.04077l0 0c0 42.208435 -34.216675 76.42517 -76.42517 76.42517l0 0c-42.208466 0 -76.4252 -34.216736 -76.4252 -76.42517z" fill-rule="evenodd"/><path fill="#000000" fill-opacity="0.0" d="m699.49603 775.92126l0 0c0 -42.208496 34.216736 -76.42523 76.42523 -76.42523l0 0c20.269226 0 39.708252 8.051941 54.04077 22.38446c14.33252 14.33252 22.3844 33.771545 22.3844 54.04077l0 0c0 42.208496 -34.216675 76.42517 -76.42517 76.42517l0 0c-42.208496 0 -76.42523 -34.216675 -76.42523 -76.42517z" fill-rule="evenodd"/><path stroke="#336dff" stroke-width="16.0" stroke-linejoin="round" stroke-linecap="butt" d="m699.49603 775.92126l0 0c0 -42.208496 34.216736 -76.42523 76.42523 -76.42523l0 0c20.269226 0 39.708252 8.051941 54.04077 22.38446c14.33252 14.33252 22.3844 33.771545 22.3844 54.04077l0 0c0 42.208496 -34.216675 76.42517 -76.42517 76.42517l0 0c-42.208496 0 -76.42523 -34.216675 -76.42523 -76.42517z" fill-rule="evenodd"/><path fill="#000000" fill-opacity="0.0" d="m699.49603 184.07874l0 0c0 -42.208466 34.216736 -76.42519 76.42523 -76.42519l0 0c20.269226 0 39.708252 8.051918 54.04077 22.384422c14.33252 14.332504 22.3844 33.77156 22.3844 54.04077l0 0c0 42.20848 -34.216675 76.4252 -76.42517 76.4252l0 0c-42.208496 0 -76.42523 -34.21672 -76.42523 -76.4252z" fill-rule="evenodd"/><path stroke="#336dff" stroke-width="16.0" stroke-linejoin="round" stroke-linecap="butt" d="m699.49603 184.07874l0 0c0 -42.208466 34.216736 -76.42519 76.42523 -76.42519l0 0c20.269226 0 39.708252 8.051918 54.04077 22.384422c14.33252 14.332504 22.3844 33.77156 22.3844 54.04077l0 0c0 42.20848 -34.216675 76.4252 -76.42517 76.4252l0 0c-42.208496 0 -76.42523 -34.21672 -76.42523 -76.4252z" fill-rule="evenodd"/><path fill="#000000" fill-opacity="0.0" d="m107.65354 184.07874l0 0c0 -42.208466 34.21673 -76.42519 76.42519 -76.42519l0 0c20.269226 0 39.708282 8.051918 54.040787 22.384422c14.332504 14.332504 22.384415 33.77156 22.384415 54.04077l0 0c0 42.20848 -34.21672 76.4252 -76.4252 76.4252l0 0c-42.208466 0 -76.42519 -34.21672 -76.42519 -76.4252z" fill-rule="evenodd"/><path stroke="#336dff" stroke-width="16.0" stroke-linejoin="round" stroke-linecap="butt" d="m107.65354 184.07874l0 0c0 -42.208466 34.21673 -76.42519 76.42519 -76.42519l0 0c20.269226 0 39.708282 8.051918 54.040787 22.384422c14.332504 14.332504 22.384415 33.77156 22.384415 54.04077l0 0c0 42.20848 -34.21672 76.4252 -76.4252 76.4252l0 0c-42.208466 0 -76.42519 -34.21672 -76.42519 -76.4252z" fill-rule="evenodd"/><path fill="#000000" fill-opacity="0.0" d="m107.65354 775.92126l0 0c0 -42.208496 34.21673 -76.42523 76.42519 -76.42523l0 0c20.269226 0 39.708282 8.051941 54.040787 22.38446c14.332504 14.33252 22.384415 33.771545 22.384415 54.04077l0 0c0 42.208496 -34.21672 76.42517 -76.4252 76.42517l0 0c-42.208466 0 -76.42519 -34.216675 -76.42519 -76.42517z" fill-rule="evenodd"/><path stroke="#336dff" stroke-width="16.0" stroke-linejoin="round" stroke-linecap="butt" d="m107.65354 775.92126l0 0c0 -42.208496 34.21673 -76.42523 76.42519 -76.42523l0 0c20.269226 0 39.708282 8.051941 54.040787 22.38446c14.332504 14.33252 22.384415 33.771545 22.384415 54.04077l0 0c0 42.208496 -34.21672 76.42517 -76.4252 76.42517l0 0c-42.208466 0 -76.42519 -34.216675 -76.42519 -76.42517z" fill-rule="evenodd"/></g></svg>