<svg version="1.1" viewBox="0.0 0.0 960.0 960.0" fill="none" stroke="none" stroke-linecap="square" stroke-miterlimit="10" xmlns:xlink="http://www.w3.org/1999/xlink" xmlns="http://www.w3.org/2000/svg"><clipPath id="p.0"><path d="m0 0l960.0 0l0 960.0l-960.0 0l0 -960.0z" clip-rule="nonzero"/></clipPath><g clip-path="url(#p.0)"><path fill="#000000" fill-opacity="0.0" d="m0 0l960.0 0l0 960.0l-960.0 0z" fill-rule="evenodd"/><path fill="#000000" fill-opacity="0.0" d="m92.750656 394.51443l250.3307 -55.496063" fill-rule="evenodd"/><path stroke="#33a7ff" stroke-width="16.0" stroke-linejoin="round" stroke-linecap="butt" d="m92.750656 394.51443l250.3307 -55.496063" fill-rule="evenodd"/><path fill="#000000" fill-opacity="0.0" d="m380.09973 442.4147l0 0c0 -143.0722 115.98294 -259.0551 259.0551 -259.0551l0 0c68.70569 0 134.59735 27.293228 183.17963 75.8755c48.582275 48.582245 75.87549 114.47394 75.87549 183.17963l0 0c0 143.07217 -115.98291 259.05508 -259.0551 259.05508l0 0c-143.07217 0 -259.0551 -115.98291 -259.0551 -259.05508z" fill-rule="evenodd"/><path stroke="#336dff" stroke-width="16.0" stroke-linejoin="round" stroke-linecap="butt" d="m380.09973 442.4147l0 0c0 -143.0722 115.98294 -259.0551 259.0551 -259.0551l0 0c68.70569 0 134.59735 27.293228 183.17963 75.8755c48.582275 48.582245 75.87549 114.47394 75.87549 183.17963l0 0c0 143.07217 -115.98291 259.05508 -259.0551 259.05508l0 0c-143.07217 0 -259.0551 -115.98291 -259.0551 -259.05508z" fill-rule="evenodd"/><path fill="#000000" fill-opacity="0.0" d="m81.86614 579.54596l250.33069 -55.496094" fill-rule="evenodd"/><path stroke="#33a7ff" stroke-width="16.0" stroke-linejoin="round" stroke-linecap="butt" d="m81.86614 579.54596l250.33069 -55.496094" fill-rule="evenodd"/><path fill="#000000" fill-opacity="0.0" d="m176.56168 741.7244l250.33072 -55.496094" fill-rule="evenodd"/><path stroke="#33a7ff" stroke-width="16.0" stroke-linejoin="round" stroke-linecap="butt" d="m176.56168 741.7244l250.33072 -55.496094" fill-rule="evenodd"/></g></svg>