<svg version="1.1" viewBox="0.0 0.0 960.0 960.0" fill="none" stroke="none" stroke-linecap="square" stroke-miterlimit="10" xmlns:xlink="http://www.w3.org/1999/xlink" xmlns="http://www.w3.org/2000/svg"><clipPath id="p.0"><path d="m0 0l960.0 0l0 960.0l-960.0 0l0 -960.0z" clip-rule="nonzero"/></clipPath><g clip-path="url(#p.0)"><path fill="#000000" fill-opacity="0.0" d="m0 0l960.0 0l0 960.0l-960.0 0z" fill-rule="evenodd"/><path fill="#000000" fill-opacity="0.0" d="m8.0 480.0l0 0c0 -121.224335 98.271736 -219.49606 219.49606 -219.49606l0 0c58.21399 0 114.04367 23.125397 155.20715 64.28891c41.163483 41.163483 64.28891 96.993164 64.28891 155.20715l0 0c0 121.224304 -98.27173 219.49603 -219.49606 219.49603l0 0c-121.22433 0 -219.49606 -98.27173 -219.49606 -219.49603z" fill-rule="evenodd"/><path stroke="#336dff" stroke-width="16.0" stroke-linejoin="round" stroke-linecap="butt" d="m8.0 480.0l0 0c0 -121.224335 98.271736 -219.49606 219.49606 -219.49606l0 0c58.21399 0 114.04367 23.125397 155.20715 64.28891c41.163483 41.163483 64.28891 96.993164 64.28891 155.20715l0 0c0 121.224304 -98.27173 219.49603 -219.49606 219.49603l0 0c-121.22433 0 -219.49606 -98.27173 -219.49606 -219.49603z" fill-rule="evenodd"/><path fill="#000000" fill-opacity="0.0" d="m446.99213 480.0l-220.0 0" fill-rule="evenodd"/><path stroke="#336dff" stroke-width="16.0" stroke-linejoin="round" stroke-linecap="butt" d="m446.99213 480.0l-220.0 0" fill-rule="evenodd"/><path fill="#000000" fill-opacity="0.0" d="m629.40155 480.0l0 0c0 23.80478 -19.297546 43.102356 -43.102356 43.102356l0 0c-11.4314575 0 -22.394714 -4.5411377 -30.477966 -12.62439c-8.083252 -8.083252 -12.62439 -19.046509 -12.62439 -30.477966l0 0c0 -23.80478 19.297607 -43.102356 43.102356 -43.102356l0 0c23.80481 0 43.102356 19.297577 43.102356 43.102356z" fill-rule="evenodd"/><path stroke="#336dff" stroke-width="16.0" stroke-linejoin="round" stroke-linecap="butt" d="m629.40155 480.0l0 0c0 23.80478 -19.297546 43.102356 -43.102356 43.102356l0 0c-11.4314575 0 -22.394714 -4.5411377 -30.477966 -12.62439c-8.083252 -8.083252 -12.62439 -19.046509 -12.62439 -30.477966l0 0c0 -23.80478 19.297607 -43.102356 43.102356 -43.102356l0 0c23.80481 0 43.102356 19.297577 43.102356 43.102356z" fill-rule="evenodd"/><path fill="#000000" fill-opacity="0.0" d="m830.76117 480.0l0 0c0 23.80478 -19.297607 43.102356 -43.102356 43.102356l0 0c-11.4314575 0 -22.394714 -4.5411377 -30.477966 -12.62439c-8.083313 -8.083252 -12.62439 -19.046509 -12.62439 -30.477966l0 0c0 -23.80478 19.297546 -43.102356 43.102356 -43.102356l0 0c23.804749 0 43.102356 19.297577 43.102356 43.102356z" fill-rule="evenodd"/><path stroke="#336dff" stroke-width="16.0" stroke-linejoin="round" stroke-linecap="butt" d="m830.76117 480.0l0 0c0 23.80478 -19.297607 43.102356 -43.102356 43.102356l0 0c-11.4314575 0 -22.394714 -4.5411377 -30.477966 -12.62439c-8.083313 -8.083252 -12.62439 -19.046509 -12.62439 -30.477966l0 0c0 -23.80478 19.297546 -43.102356 43.102356 -43.102356l0 0c23.804749 0 43.102356 19.297577 43.102356 43.102356z" fill-rule="evenodd"/><path fill="#000000" fill-opacity="0.0" d="m1022.32544 480.0l0 0c0 23.80478 -19.297546 43.102356 -43.102356 43.102356l0 0c-11.4314575 0 -22.394714 -4.5411377 -30.477966 -12.62439c-8.083252 -8.083252 -12.62439 -19.046509 -12.62439 -30.477966l0 0c0 -23.80478 19.297607 -43.102356 43.102356 -43.102356l0 0c23.80481 0 43.102356 19.297577 43.102356 43.102356z" fill-rule="evenodd"/><path stroke="#336dff" stroke-width="16.0" stroke-linejoin="round" stroke-linecap="butt" d="m1022.32544 480.0l0 0c0 23.80478 -19.297546 43.102356 -43.102356 43.102356l0 0c-11.4314575 0 -22.394714 -4.5411377 -30.477966 -12.62439c-8.083252 -8.083252 -12.62439 -19.046509 -12.62439 -30.477966l0 0c0 -23.80478 19.297607 -43.102356 43.102356 -43.102356l0 0c23.80481 0 43.102356 19.297577 43.102356 43.102356z" fill-rule="evenodd"/><path fill="#000000" fill-opacity="0.0" d="m685.5748 725.5512l-74.677185 -74.677185" fill-rule="evenodd"/><path stroke="#eeeeee" stroke-width="16.0" stroke-linejoin="round" stroke-linecap="butt" d="m685.5748 725.5512l-74.677185 -74.677185" fill-rule="evenodd"/><path fill="#000000" fill-opacity="0.0" d="m610.89764 725.5512l74.677185 -74.677185" fill-rule="evenodd"/><path stroke="#eeeeee" stroke-width="16.0" stroke-linejoin="round" stroke-linecap="butt" d="m610.89764 725.5512l74.677185 -74.677185" fill-rule="evenodd"/><path fill="#000000" fill-opacity="0.0" d="m708.4304 565.3937l318.70874 0l0 245.63782l-318.70874 0z" fill-rule="evenodd"/><path fill="#eeeeee" d="m817.0398 753.5937l0 -20.328125l-58.234375 0l24.96875 -26.421875q6.484375 -6.65625 11.765625 -12.71875q5.28125 -6.0625 9.109375 -11.890625q3.734375 -5.84375 5.78125 -11.8125q2.0625 -5.96875 2.0625 -12.53125q0 -8.65625 -2.734375 -15.8125q-2.734375 -7.15625 -7.9375 -12.25q-5.28125 -5.109375 -13.078125 -7.9375q-7.78125 -2.828125 -17.90625 -2.828125q-10.5625 0 -19.28125 3.421875q-8.703125 3.421875 -14.796875 9.34375q-6.203125 5.921875 -9.578125 13.8125q-3.375 7.875 -3.375 16.71875l25.4375 0q0 -5.375 1.359375 -9.5625q1.375 -4.203125 4.015625 -7.015625q2.546875 -2.734375 6.421875 -4.140625q3.875 -1.421875 8.984375 -1.421875q3.90625 0 7.140625 1.28125q3.25 1.265625 5.609375 3.640625q2.28125 2.453125 3.546875 5.921875q1.28125 3.46875 1.28125 7.921875q0 3.015625 -0.953125 6.203125q-0.953125 3.1875 -3.046875 6.828125q-2.1875 3.75 -5.65625 8.21875q-3.46875 4.453125 -8.46875 9.921875l-42.9375 46.125l0 17.3125l90.5 0z" fill-rule="nonzero"/></g></svg>