<svg version="1.1" viewBox="0.0 0.0 960.0 960.0" fill="none" stroke="none" stroke-linecap="square" stroke-miterlimit="10" xmlns:xlink="http://www.w3.org/1999/xlink" xmlns="http://www.w3.org/2000/svg"><clipPath id="p.0"><path d="m0 0l960.0 0l0 960.0l-960.0 0l0 -960.0z" clip-rule="nonzero"/></clipPath><g clip-path="url(#p.0)"><path fill="#000000" fill-opacity="0.0" d="m0 0l960.0 0l0 960.0l-960.0 0z" fill-rule="evenodd"/><path fill="#000000" fill-opacity="0.0" d="m109.06036 396.84253l250.33072 -55.496063" fill-rule="evenodd"/><path stroke="#eeeeee" stroke-width="16.0" stroke-linejoin="round" stroke-linecap="butt" d="m109.06036 396.84253l250.33072 -55.496063" fill-rule="evenodd"/><path fill="#000000" fill-opacity="0.0" d="m396.40945 444.74277l0 0c0 -143.07217 115.98294 -259.0551 259.05508 -259.0551l0 0c68.70569 0 134.59741 27.293228 183.17969 75.87547c48.582214 48.582275 75.87549 114.47394 75.87549 183.17963l0 0c0 143.07224 -115.98297 259.05515 -259.05518 259.05515l0 0c-143.07214 0 -259.05508 -115.98291 -259.05508 -259.05515z" fill-rule="evenodd"/><path stroke="#336dff" stroke-width="16.0" stroke-linejoin="round" stroke-linecap="butt" d="m396.40945 444.74277l0 0c0 -143.07217 115.98294 -259.0551 259.05508 -259.0551l0 0c68.70569 0 134.59741 27.293228 183.17969 75.87547c48.582214 48.582275 75.87549 114.47394 75.87549 183.17963l0 0c0 143.07224 -115.98297 259.05515 -259.05518 259.05515l0 0c-143.07214 0 -259.05508 -115.98291 -259.05508 -259.05515z" fill-rule="evenodd"/><path fill="#000000" fill-opacity="0.0" d="m98.17585 581.874l250.33072 -55.496094" fill-rule="evenodd"/><path stroke="#eeeeee" stroke-width="16.0" stroke-linejoin="round" stroke-linecap="butt" d="m98.17585 581.874l250.33072 -55.496094" fill-rule="evenodd"/><path fill="#000000" fill-opacity="0.0" d="m192.87138 744.0525l250.3307 -55.496033" fill-rule="evenodd"/><path stroke="#eeeeee" stroke-width="16.0" stroke-linejoin="round" stroke-linecap="butt" d="m192.87138 744.0525l250.3307 -55.496033" fill-rule="evenodd"/></g></svg>