<svg version="1.1" viewBox="0.0 0.0 960.0 960.0" fill="none" stroke="none" stroke-linecap="square" stroke-miterlimit="10" xmlns:xlink="http://www.w3.org/1999/xlink" xmlns="http://www.w3.org/2000/svg"><clipPath id="p.0"><path d="m0 0l960.0 0l0 960.0l-960.0 0l0 -960.0z" clip-rule="nonzero"/></clipPath><g clip-path="url(#p.0)"><path fill="#000000" fill-opacity="0.0" d="m0 0l960.0 0l0 960.0l-960.0 0z" fill-rule="evenodd"/><path fill="#000000" fill-opacity="0.0" d="m124.64692 659.1132l0 0c0 -100.246216 81.2656 -181.51181 181.51181 -181.51181l0 0c48.139923 0 94.30817 19.123505 128.34824 53.163544c34.04007 34.0401 53.163574 80.20831 53.163574 128.34827l0 0c0 100.246216 -81.265594 181.51178 -181.51181 181.51178l0 0c-100.2462 0 -181.51181 -81.265564 -181.51181 -181.51178z" fill-rule="evenodd"/><path stroke="#336dff" stroke-width="16.0" stroke-linejoin="round" stroke-linecap="butt" d="m124.64692 659.1132l0 0c0 -100.246216 81.2656 -181.51181 181.51181 -181.51181l0 0c48.139923 0 94.30817 19.123505 128.34824 53.163544c34.04007 34.0401 53.163574 80.20831 53.163574 128.34827l0 0c0 100.246216 -81.265594 181.51178 -181.51181 181.51178l0 0c-100.2462 0 -181.51181 -81.265564 -181.51181 -181.51178z" fill-rule="evenodd"/><path fill="#000000" fill-opacity="0.0" d="m498.7227 287.68896l0 0c0 -92.95778 75.35721 -168.31494 168.31497 -168.31494l0 0c44.639893 0 87.45148 17.733131 119.01666 49.298317c31.565186 31.56517 49.29828 74.37674 49.29828 119.01663l0 0c0 92.957794 -75.35718 168.31497 -168.31494 168.31497l0 0c-92.95776 0 -168.31497 -75.35718 -168.31497 -168.31497z" fill-rule="evenodd"/><path stroke="#336dff" stroke-width="16.0" stroke-linejoin="round" stroke-linecap="butt" d="m498.7227 287.68896l0 0c0 -92.95778 75.35721 -168.31494 168.31497 -168.31494l0 0c44.639893 0 87.45148 17.733131 119.01666 49.298317c31.565186 31.56517 49.29828 74.37674 49.29828 119.01663l0 0c0 92.957794 -75.35718 168.31497 -168.31494 168.31497l0 0c-92.95776 0 -168.31497 -75.35718 -168.31497 -168.31497z" fill-rule="evenodd"/><path fill="#000000" fill-opacity="0.0" d="m522.54333 480.61417l0 -45.637787" fill-rule="evenodd"/><path stroke="#eeeeee" stroke-width="16.0" stroke-linejoin="round" stroke-linecap="butt" d="m522.54333 480.61417l0 -45.637787" fill-rule="evenodd"/><path fill="#000000" fill-opacity="0.0" d="m447.38583 512.6142l81.22836 -81.22836" fill-rule="evenodd"/><path stroke="#eeeeee" stroke-width="16.0" stroke-linejoin="round" stroke-linecap="butt" d="m447.38583 512.6142l81.22836 -81.22836" fill-rule="evenodd"/><path fill="#000000" fill-opacity="0.0" d="m475.74014 434.98425l46.803192 0" fill-rule="evenodd"/><path stroke="#eeeeee" stroke-width="16.0" stroke-linejoin="round" stroke-linecap="butt" d="m475.74014 434.98425l46.803192 0" fill-rule="evenodd"/></g></svg>