<svg version="1.1" viewBox="0.0 0.0 960.0 960.0" fill="none" stroke="none" stroke-linecap="square" stroke-miterlimit="10" xmlns:xlink="http://www.w3.org/1999/xlink" xmlns="http://www.w3.org/2000/svg"><clipPath id="p.0"><path d="m0 0l960.0 0l0 960.0l-960.0 0l0 -960.0z" clip-rule="nonzero"/></clipPath><g clip-path="url(#p.0)"><path fill="#000000" fill-opacity="0.0" d="m0 0l960.0 0l0 960.0l-960.0 0z" fill-rule="evenodd"/><path fill="#000000" fill-opacity="0.0" d="m145.34908 601.53546l0 0c0 -121.224365 98.27174 -219.4961 219.49608 -219.4961l0 0c58.21396 0 114.04364 23.125427 155.20715 64.28891c41.163513 41.163483 64.28888 96.993195 64.28888 155.20718l0 0c0 121.224304 -98.27173 219.49603 -219.49603 219.49603l0 0c-121.224335 0 -219.49608 -98.27173 -219.49608 -219.49603z" fill-rule="evenodd"/><path stroke="#336dff" stroke-width="16.0" stroke-linejoin="round" stroke-linecap="butt" d="m145.34908 601.53546l0 0c0 -121.224365 98.27174 -219.4961 219.49608 -219.4961l0 0c58.21396 0 114.04364 23.125427 155.20715 64.28891c41.163513 41.163483 64.28888 96.993195 64.28888 155.20718l0 0c0 121.224304 -98.27173 219.49603 -219.49603 219.49603l0 0c-121.224335 0 -219.49608 -98.27173 -219.49608 -219.49603z" fill-rule="evenodd"/><path fill="#000000" fill-opacity="0.0" d="m597.70605 247.44095l0 0c0 -59.907684 48.56476 -108.47244 108.47241 -108.47244l0 0c28.768677 0 56.35907 11.428314 76.7016 31.770844c20.34253 20.34253 31.770874 47.932922 31.770874 76.7016l0 0c0 59.907684 -48.56476 108.47244 -108.47247 108.47244l0 0c-59.907654 0 -108.47241 -48.56476 -108.47241 -108.47244z" fill-rule="evenodd"/><path stroke="#336dff" stroke-width="16.0" stroke-linejoin="round" stroke-linecap="butt" d="m597.70605 247.44095l0 0c0 -59.907684 48.56476 -108.47244 108.47241 -108.47244l0 0c28.768677 0 56.35907 11.428314 76.7016 31.770844c20.34253 20.34253 31.770874 47.932922 31.770874 76.7016l0 0c0 59.907684 -48.56476 108.47244 -108.47247 108.47244l0 0c-59.907654 0 -108.47241 -48.56476 -108.47241 -108.47244z" fill-rule="evenodd"/><path fill="#000000" fill-opacity="0.0" d="m782.88007 170.73935l-76.25195 76.25197" fill-rule="evenodd"/><path stroke="#336dff" stroke-width="16.0" stroke-linejoin="round" stroke-linecap="butt" d="m782.88007 170.73935l-76.25195 76.25197" fill-rule="evenodd"/><path fill="#000000" fill-opacity="0.0" d="m615.90814 392.7244l0 -45.637787" fill-rule="evenodd"/><path stroke="#eeeeee" stroke-width="16.0" stroke-linejoin="round" stroke-linecap="butt" d="m615.90814 392.7244l0 -45.637787" fill-rule="evenodd"/><path fill="#000000" fill-opacity="0.0" d="m540.7507 424.7244l81.22833 -81.22833" fill-rule="evenodd"/><path stroke="#eeeeee" stroke-width="16.0" stroke-linejoin="round" stroke-linecap="butt" d="m540.7507 424.7244l81.22833 -81.22833" fill-rule="evenodd"/><path fill="#000000" fill-opacity="0.0" d="m569.105 347.09448l46.80316 0" fill-rule="evenodd"/><path stroke="#eeeeee" stroke-width="16.0" stroke-linejoin="round" stroke-linecap="butt" d="m569.105 347.09448l46.80316 0" fill-rule="evenodd"/></g></svg>